<?xml version="1.0" encoding="utf-8"?>
<!-- Generator: Adobe Illustrator 19.1.0, SVG Export Plug-In . SVG Version: 6.00 Build 0)  -->
<svg version="1.1" id="Layer_1" xmlns="http://www.w3.org/2000/svg" xmlns:xlink="http://www.w3.org/1999/xlink" x="0px" y="0px"
	 viewBox="0 0 366.1 60.6" style="enable-background:new 0 0 366.1 60.6;" xml:space="preserve">
<style type="text/css">
	.st0{fill:#FFFFFF;}
	.st1{fill:#E32B2B;}
</style>
<g>
	<g>
		<path class="st0" d="M12.3,28.9v23.5H7.7V28.9H0.9v-2.3h18.3v2.3H12.3z"/>
		<path class="st0" d="M33.3,34.3c-2.2-0.5-4.7-0.3-6.2,0.4v17.7h-4.4V33.2c2.7-1,5.2-1.5,11.6-1.4L33.3,34.3z"/>
		<path class="st0" d="M46.9,52.7c-7,0-10.3-2.3-10.3-6c0-5.4,6.7-6.9,15.1-7.6V38c0-3.1-2.5-4-6-4c-2.6,0-5,0.7-6.5,1.3l-1.1-2
			c1.6-0.6,4.6-1.5,8.3-1.5c5,0,9.4,1.6,9.4,6.6v13C53.8,52.2,50.6,52.7,46.9,52.7z M51.7,40.9c-6.8,0.6-10.9,1.7-10.9,5.8
			c0,2.9,2.4,4.1,6.4,4.1c1.7,0,3.4-0.2,4.5-0.7V40.9z"/>
		<path class="st0" d="M78.1,52.4V37.9c0-1.9-1-3.9-5.7-3.9c-2.5,0-3.7,0.3-5.1,0.7v17.7h-4.4V33.2c2.4-0.9,5.6-1.4,9.9-1.4
			c7.5,0,9.7,3.1,9.7,6v14.6H78.1z"/>
		<path class="st0" d="M94.8,52.7c-2.9,0-5.5-0.6-6.9-1.4l1.2-2.2c0.9,0.6,2.8,1.2,5.2,1.2c3,0,5-1.5,5-3.5c0-2.1-1.5-3-4.5-3.9
			c-5.2-1.5-6.3-3.6-6.3-5.7c0-3,3.1-5.6,8-5.6c2.8,0,4.9,0.7,6.3,1.4l-1.2,2c-0.8-0.5-2.4-1.1-4.5-1.1c-3,0-4.5,1.5-4.5,3.2
			c0,2,1.9,2.9,4.5,3.6c5.2,1.5,6.6,3.6,6.6,5.9C103.9,49.8,100.3,52.7,94.8,52.7z"/>
		<path class="st0" d="M112.3,28.3c-1.5,0-2.6-0.8-2.6-1.8c0-1,1.2-1.8,2.6-1.8c1.4,0,2.5,0.8,2.5,1.8
			C114.8,27.4,113.7,28.3,112.3,28.3z M110.1,52.4V32.2h4.4v20.2H110.1z"/>
		<path class="st0" d="M130,52.6c-4.9,0-6.7-2.6-6.7-5.1V34.2h-3.1v-2.1h3.1v-4.7l4.4-1v5.7h4.7v2.1h-4.7v13.2c0,1.6,1,2.9,3.4,2.9
			c0.5,0,0.9-0.1,1.3-0.1v2.1C131.9,52.4,131.1,52.6,130,52.6z"/>
		<path class="st0" d="M140.4,28.3c-1.5,0-2.6-0.8-2.6-1.8c0-1,1.2-1.8,2.6-1.8c1.4,0,2.5,0.8,2.5,1.8
			C142.9,27.4,141.8,28.3,140.4,28.3z M138.2,52.4V32.2h4.4v20.2H138.2z"/>
		<path class="st0" d="M159.4,52.7c-7.4,0-10.6-4.5-10.6-10.5c0-6,3.2-10.5,10.5-10.5c7.4,0,10.6,4.5,10.6,10.5
			C169.9,48.2,166.7,52.7,159.4,52.7z M159.4,33.9c-5.2,0-6.2,4.3-6.2,8.4c0,4.1,1.1,8.2,6.2,8.2c5.2,0,6.1-4.1,6.1-8.2
			C165.5,38.2,164.6,33.9,159.4,33.9z"/>
		<path class="st0" d="M191.1,52.4V37.9c0-1.9-1-3.9-5.7-3.9c-2.5,0-3.7,0.3-5.1,0.7v17.7H176V33.2c2.4-0.9,5.6-1.4,9.9-1.4
			c7.5,0,9.7,3.1,9.7,6v14.6H191.1z"/>
		<path class="st0" d="M211.5,52.7c-7,0-10.3-2.3-10.3-6c0-5.4,6.7-6.9,15.1-7.6V38c0-3.1-2.5-4-6-4c-2.6,0-5,0.7-6.5,1.3l-1.1-2
			c1.6-0.6,4.6-1.5,8.3-1.5c5,0,9.4,1.6,9.4,6.6v13C218.4,52.2,215.3,52.7,211.5,52.7z M216.3,40.9c-6.8,0.6-10.9,1.7-10.9,5.8
			c0,2.9,2.4,4.1,6.4,4.1c1.7,0,3.4-0.2,4.5-0.7V40.9z"/>
		<path class="st0" d="M227.9,52.4V22.9h4.4v29.4H227.9z"/>
	</g>
	<g>
		<path class="st1" d="M234.2,60.6v-2.4c3.4-0.7,6.2-2.9,6.2-6.7V26.6h4.6v24.8C245,56.9,239.9,60,234.2,60.6z"/>
		<path class="st1" d="M261.9,52.8c-6.8,0-9.6-2.6-9.6-6.6v-14h4.4v14.1c0,2.4,1.7,4.2,5.4,4.2c2.1,0,3.6-0.3,4.9-0.8V32.2h4.4v19
			C269.4,52,266.2,52.8,261.9,52.8z"/>
		<path class="st1" d="M283.5,52.7c-2.9,0-5.5-0.6-6.9-1.4l1.2-2.2c0.9,0.6,2.8,1.2,5.2,1.2c3,0,5-1.5,5-3.5c0-2.1-1.5-3-4.5-3.9
			c-5.2-1.5-6.3-3.6-6.3-5.7c0-3,3.1-5.6,8-5.6c2.8,0,4.9,0.7,6.3,1.4l-1.2,2c-0.8-0.5-2.4-1.1-4.5-1.1c-3,0-4.5,1.5-4.5,3.2
			c0,2,1.9,2.9,4.5,3.6c5.2,1.5,6.6,3.6,6.6,5.9C292.5,49.8,289,52.7,283.5,52.7z"/>
		<path class="st1" d="M306.4,52.6c-4.9,0-6.7-2.6-6.7-5.1V34.2h-3.1v-2.1h3.1v-4.7l4.4-1v5.7h4.7v2.1h-4.7v13.2
			c0,1.6,1,2.9,3.4,2.9c0.5,0,0.9-0.1,1.3-0.1v2.1C308.3,52.4,307.5,52.6,306.4,52.6z"/>
		<path class="st1" d="M316.5,28.3c-1.5,0-2.6-0.8-2.6-1.8c0-1,1.2-1.8,2.6-1.8c1.4,0,2.5,0.8,2.5,1.8
			C319,27.4,317.9,28.3,316.5,28.3z M314.3,52.4V32.2h4.4v20.2H314.3z"/>
		<path class="st1" d="M335,52.7c-5.9,0-10.3-4-10.3-10.5c0-6.6,4.4-10.5,10.4-10.5c3.3,0,5.1,0.8,6,1.4l-1,1.9c-0.8-0.5-2-1-4-1
			c-4.9,0-6.8,3.3-6.8,8.1c0,4.8,2.3,8.2,6.7,8.2c1.9,0,3.1-0.4,4.1-1l1.1,2.1C340,52.1,338,52.7,335,52.7z"/>
		<path class="st1" d="M349.2,43.5c0.5,4.6,3.4,6.8,8.2,6.8c3.1,0,5.3-0.6,6.7-1.2l1.2,2.2c-1.7,0.8-4.5,1.4-8.2,1.4
			c-7.1,0-12-3.3-12-10.5c0-6.9,4.5-10.4,10.9-10.4c6.5,0,10.4,3.2,10.3,9.9L349.2,43.5z M355.7,33.9c-3.9,0-6.8,2.4-6.7,7.8
			l12.9-1.5C361.9,35.7,359.6,33.9,355.7,33.9z"/>
	</g>
	<g>
		<path class="st1" d="M4.9,2.6v10h-2v-10H0v-1h7.8v1H4.9z"/>
		<path class="st1" d="M16.3,12.6V6.5c0-0.9-0.5-1.7-2.3-1.7c-0.9,0-1.5,0.1-2.2,0.4v7.4H9.9V0h1.9v4.4c1-0.4,1.8-0.5,2.6-0.5
			c2.9,0,3.8,1.3,3.8,2.5v6.2H16.3z"/>
		<path class="st1" d="M22.5,8.8c0.2,2,1.4,2.9,3.5,2.9c1.3,0,2.2-0.2,2.8-0.5l0.5,0.9c-0.7,0.3-1.9,0.6-3.5,0.6
			c-3,0-5.1-1.4-5.1-4.5c0-2.9,1.9-4.5,4.6-4.5c2.8,0,4.4,1.3,4.4,4.2L22.5,8.8z M25.3,4.7c-1.7,0-2.9,1-2.9,3.3l5.5-0.6
			C27.9,5.5,26.9,4.7,25.3,4.7z"/>
		<path class="st1" d="M38.2,12.6v-11h2v11H38.2z"/>
		<path class="st1" d="M49.8,12.6V6.4c0-0.8-0.4-1.7-2.4-1.7c-1.1,0-1.6,0.1-2.2,0.3v7.6h-1.9V4.4c1-0.4,2.4-0.6,4.2-0.6
			c3.2,0,4.1,1.3,4.1,2.6v6.2H49.8z"/>
		<path class="st1" d="M58.1,12.7c-2.1,0-2.9-1.1-2.9-2.2V4.8h-1.3V3.9h1.3V2l1.9-0.4v2.4h2v0.9h-2v5.6c0,0.7,0.4,1.2,1.5,1.2
			c0.2,0,0.4,0,0.6-0.1v0.9C58.9,12.6,58.5,12.7,58.1,12.7z"/>
		<path class="st1" d="M62.7,8.8c0.2,2,1.4,2.9,3.5,2.9c1.3,0,2.2-0.2,2.8-0.5l0.5,0.9c-0.7,0.3-1.9,0.6-3.5,0.6
			c-3,0-5.1-1.4-5.1-4.5c0-2.9,1.9-4.5,4.6-4.5c2.8,0,4.4,1.3,4.4,4.2L62.7,8.8z M65.4,4.7c-1.7,0-2.9,1-2.9,3.3l5.5-0.6
			C68.1,5.5,67.1,4.7,65.4,4.7z"/>
		<path class="st1" d="M76.9,4.9c-0.9-0.2-2-0.1-2.6,0.2v7.5h-1.9V4.4c1.1-0.4,2.2-0.7,5-0.6L76.9,4.9z"/>
		<path class="st1" d="M85.6,12.6V6.4c0-0.8-0.4-1.7-2.4-1.7c-1.1,0-1.6,0.1-2.2,0.3v7.6h-1.9V4.4c1-0.4,2.4-0.6,4.2-0.6
			c3.2,0,4.1,1.3,4.1,2.6v6.2H85.6z"/>
		<path class="st1" d="M94.2,12.7c-3,0-4.4-1-4.4-2.5c0-2.3,2.9-3,6.4-3.2V6.4c0-1.3-1.1-1.7-2.5-1.7c-1.1,0-2.1,0.3-2.8,0.5
			l-0.4-0.8c0.7-0.3,1.9-0.6,3.5-0.6c2.1,0,4,0.7,4,2.8v5.5C97.2,12.5,95.8,12.7,94.2,12.7z M96.3,7.7c-2.9,0.3-4.6,0.7-4.6,2.5
			c0,1.2,1,1.8,2.7,1.8c0.7,0,1.4-0.1,1.9-0.3V7.7z"/>
		<path class="st1" d="M104.5,12.7c-2.1,0-2.9-1.1-2.9-2.2V4.8h-1.3V3.9h1.3V2l1.9-0.4v2.4h2v0.9h-2v5.6c0,0.7,0.4,1.2,1.5,1.2
			c0.2,0,0.4,0,0.6-0.1v0.9C105.3,12.6,105,12.7,104.5,12.7z"/>
		<path class="st1" d="M108.8,2.3c-0.6,0-1.1-0.4-1.1-0.8c0-0.4,0.5-0.8,1.1-0.8c0.6,0,1.1,0.4,1.1,0.8
			C109.9,1.9,109.4,2.3,108.8,2.3z M107.9,12.6V3.9h1.9v8.6H107.9z"/>
		<path class="st1" d="M116.8,12.7c-3.1,0-4.5-1.9-4.5-4.5c0-2.6,1.4-4.5,4.5-4.5c3.2,0,4.5,1.9,4.5,4.5
			C121.3,10.8,120,12.7,116.8,12.7z M116.8,4.7c-2.2,0-2.6,1.8-2.6,3.6c0,1.7,0.5,3.5,2.6,3.5c2.2,0,2.6-1.8,2.6-3.5
			C119.4,6.5,119,4.7,116.8,4.7z"/>
		<path class="st1" d="M130.3,12.6V6.4c0-0.8-0.4-1.7-2.4-1.7c-1.1,0-1.6,0.1-2.2,0.3v7.6h-1.9V4.4c1-0.4,2.4-0.6,4.2-0.6
			c3.2,0,4.1,1.3,4.1,2.6v6.2H130.3z"/>
		<path class="st1" d="M138.9,12.7c-3,0-4.4-1-4.4-2.5c0-2.3,2.9-3,6.4-3.2V6.4c0-1.3-1.1-1.7-2.5-1.7c-1.1,0-2.1,0.3-2.8,0.5
			l-0.4-0.8c0.7-0.3,1.9-0.6,3.5-0.6c2.1,0,4,0.7,4,2.8v5.5C141.8,12.5,140.5,12.7,138.9,12.7z M140.9,7.7c-2.9,0.3-4.6,0.7-4.6,2.5
			c0,1.2,1,1.8,2.7,1.8c0.7,0,1.4-0.1,1.9-0.3V7.7z"/>
		<path class="st1" d="M145.8,12.6V0h1.9v12.6H145.8z"/>
		<path class="st1" d="M154.1,16.1v-1c1.4-0.3,2.6-1.2,2.6-2.9V1.6h2v10.6C158.7,14.5,156.5,15.8,154.1,16.1z"/>
		<path class="st1" d="M165.9,12.7c-3.1,0-4.5-1.9-4.5-4.5c0-2.6,1.4-4.5,4.5-4.5c3.2,0,4.5,1.9,4.5,4.5
			C170.4,10.8,169,12.7,165.9,12.7z M165.9,4.7c-2.2,0-2.6,1.8-2.6,3.6c0,1.7,0.5,3.5,2.6,3.5c2.2,0,2.6-1.8,2.6-3.5
			C168.5,6.5,168.1,4.7,165.9,4.7z"/>
		<path class="st1" d="M176.9,12.8c-2.9,0-4.1-1.1-4.1-2.8v-6h1.9v6c0,1,0.7,1.8,2.3,1.8c0.9,0,1.5-0.1,2.1-0.4V3.9h1.9v8.1
			C180.1,12.4,178.8,12.8,176.9,12.8z"/>
		<path class="st1" d="M188.4,4.9c-0.9-0.2-2-0.1-2.6,0.2v7.5h-1.9V4.4c1.1-0.4,2.2-0.7,5-0.6L188.4,4.9z"/>
		<path class="st1" d="M197.2,12.6V6.4c0-0.8-0.4-1.7-2.4-1.7c-1.1,0-1.6,0.1-2.2,0.3v7.6h-1.9V4.4c1-0.4,2.4-0.6,4.2-0.6
			c3.2,0,4.1,1.3,4.1,2.6v6.2H197.2z"/>
		<path class="st1" d="M205.8,12.7c-3,0-4.4-1-4.4-2.5c0-2.3,2.9-3,6.4-3.2V6.4c0-1.3-1.1-1.7-2.5-1.7c-1.1,0-2.1,0.3-2.8,0.5
			l-0.4-0.8c0.7-0.3,1.9-0.6,3.5-0.6c2.1,0,4,0.7,4,2.8v5.5C208.7,12.5,207.4,12.7,205.8,12.7z M207.8,7.7c-2.9,0.3-4.6,0.7-4.6,2.5
			c0,1.2,1,1.8,2.7,1.8c0.7,0,1.4-0.1,1.9-0.3V7.7z"/>
		<path class="st1" d="M212.7,12.6V0h1.9v12.6H212.7z"/>
		<path class="st1" d="M227.5,12.7c-3.1,0-4.5-1.9-4.5-4.5c0-2.6,1.4-4.5,4.5-4.5c3.2,0,4.5,1.9,4.5,4.5
			C231.9,10.8,230.6,12.7,227.5,12.7z M227.5,4.7c-2.2,0-2.6,1.8-2.6,3.6c0,1.7,0.5,3.5,2.6,3.5c2.2,0,2.6-1.8,2.6-3.5
			C230.1,6.5,229.7,4.7,227.5,4.7z"/>
		<path class="st1" d="M237,4.8v7.8h-1.9V4.8h-1.3V3.9h1.3V2.7c0-1.7,1.4-2.8,3.9-2.7v0.9c-1.1,0-2,0.4-2,1.7v1.4h2v0.9H237z"/>
	</g>
</g>
</svg>
